<svg xmlns="http://www.w3.org/2000/svg" viewBox="0 0 404 80" version="1.1">
  <defs><linearGradient id="gradient" x1="50%" x2="50%" y1="0%" y2="100%"><stop stop-color="#1aa1e3" offset="0"/><stop stop-color="#3dafe8" offset="1"/></linearGradient></defs>
  <path fill="url(#gradient)" d="m0 0h80v40.5c-2.1-1.5-3.8-2-6-2-2.9-6.9-5.4-13.3-8.9-19.3 1.1-3.4 0.7-6.8-1.9-10s-7.9-4.8-12.3-2.6c-3.6 1.7-5.5 5.1-5.7 8.1-1.8 1.2-2.7 2-4.6 4.6s-4 7.3-5.6 11c-6 0.4-8.3 3-9.8 6.6s0 9.5 3 11.6c-1.3 3.6-2.8 6.5-5.6 8.9-2.7-3.8-6.6-4.7-10.1-4.2-3.5 0.4-7.4 3.4-8.3 7.6h-4.2z"/>
  <path fill="#0d86c2" d="m46.7 21.5c3.6 4.7 9.3 5.9 14.5 2.9 2.4 5.4 4.8 10.8 6.9 15.8-4.4 2.7-5.5 8.6-3.5 12.9s6 6.5 11.7 5.7c1.3 2.8 2.5 5.3 3.8 7.9-0.03 4.5-0.004 9.2 0 13.3h-80.1c0.119-4.7-0.12-8.9 0-13.1 1.5 0 3.2 0.01 4.6 0 1.9 4.8 7.3 7.7 12.2 6.3s7.4-5.5 7.7-9.4c4.7-3.2 7.7-7.9 9.5-13 4.2 0.5 8.7-2.3 10.3-6.5s0.6-8.9-3.5-12.1c1.5-4 3.4-7.8 5.9-10.8z"/>
  <g fill="#016ca1"><circle cy="63.2" cx="14.2" r="4.4"/><circle cy="40.6" cx="34.8" r="4.4"/><circle cy="15.8" cx="55.4" r="4.4"/><circle cy="48.8" cx="73.9" r="4.4"/></g>
  <g fill="#2a2a2a" transform="matrix(1.3 0 0 -1.3 -3.99 81.8)"><path d="m86.1 2.09h16.1c18.7 0 27.3 9.89 27.3 28.6v1.3c0 18.9-9.47 27.8-27.4 27.8h-16v-57.7zm4.66 4.05v49.6h10.9c15 0 22.9-6.55 22.9-23.7v-1.91c0-16.7-6.97-24-22.3-24h-11.5z"/><path d="m148 1.41c6.19 0 10.1 2.23 12.2 4.47h0.266l0.343-3.78h3.78v30.9c0 8.52-4.91 12.1-13.7 12.1-4.74 0-8.69-0.765-12.3-2.23v-3.27c3 0.86 6.45 1.55 10.7 1.55 7.58 0 10.8-2.06 10.8-9.2v-5.5l-12.5-1.38c-8.26-0.953-12.6-4.81-12.6-12.1 0-7.31 5.33-11.5 13-11.5zm1.11 3.53c-5.84 0-9.55 2.92-9.55 8.17 0 5.41 2.94 8 9.3 8.69l11.3 1.28v-14.4c-2-1.97-6-3.76-11-3.76z"/><path d="m187 2.09h4.56l15.9 42.3h-4.47l-13.4-36.3h-0.266l-13.4 36.3h-4.91l16-42.3z"/><path d="m214 2.09h4.56v42.2h-4.56v-42.2zm-0.078 51.3h4.73v5.23h-4.73v-5.23z"/><path d="m230 2.09h4.56v35.2c4.22 2.41 9.11 3.88 13.8 3.88 6.95 0 9.55-2.33 9.55-8.25v-30.8h4.47v31.7c0 8.09-4.22 11.3-12.3 11.3-5.34 0-10.9-1.72-15.4-4.64h-0.265v3.88h-4.39v-42.2z"/><path d="m289 1.41c6.19 0 9.7 1.72 12.5 3.36v3.78c-2.33-1.38-6.03-3.19-12-3.19-10.2 0-14.9 6.03-14.9 17.4v1.64c0 11.5 6.03 16.8 14.3 16.8 5.5 0 8.42-0.953 12-2.75v3.95c-2.92 1.81-6.19 2.75-11.6 2.75-10.8 0-19.3-6.45-19.3-21.4v-1.03c0-13.6 6.7-21.3 19-21.3z"/><path d="m309 2.09h4.56v42.2h-4.56v-42.2zm-0.078 51.3h4.74v5.23h-4.74v-5.23z"/></g>
</svg>